<?xml version="1.0" standalone="no"?>
<!DOCTYPE svg PUBLIC "-//W3C//DTD SVG 20010904//EN"
 "http://www.w3.org/TR/2001/REC-SVG-20010904/DTD/svg10.dtd">
<svg version="1.0" xmlns="http://www.w3.org/2000/svg"
 width="300.000000pt" height="68.000000pt" viewBox="0 0 300.000000 68.000000"
 preserveAspectRatio="xMidYMid meet">
<metadata>
Created by potrace 1.10, written by Peter Selinger 2001-2011
</metadata>
<g transform="translate(0.000000,68.000000) scale(0.100000,-0.100000)"
fill="#000000" stroke="none">
<path d="M127 610 c-14 -16 -28 -39 -32 -49 -4 -15 -17 -21 -48 -24 -41 -3
-41 -4 9 -5 l50 -2 -6 -47 c-4 -27 -15 -65 -24 -85 -35 -80 -7 -180 60 -220
26 -15 32 -23 23 -29 -8 -4 -11 -9 -9 -11 3 -2 14 -8 25 -14 11 -6 33 -30 49
-53 40 -59 65 -69 109 -42 19 11 47 39 62 61 17 25 36 40 49 40 17 0 18 2 6
10 -25 16 -50 12 -50 -9 0 -11 -5 -23 -11 -26 -5 -4 -14 -18 -19 -31 -5 -13
-15 -24 -21 -24 -7 0 -9 3 -6 7 4 3 2 12 -4 19 -7 9 -5 14 10 19 20 6 38 41
27 52 -3 3 -12 -2 -21 -11 -9 -9 -22 -16 -28 -16 -7 0 -3 7 7 15 11 8 15 15 9
15 -11 0 -12 24 -1 35 3 4 4 24 1 45 -5 32 -1 43 20 64 14 13 22 28 18 32 -3
4 2 4 11 1 23 -8 32 7 13 23 -11 10 -19 7 -40 -16 -14 -15 -25 -35 -25 -45 0
-10 -4 -20 -8 -23 -14 -8 0 63 14 75 15 12 19 39 7 39 -5 0 -8 33 -8 72 0 61
-3 73 -17 76 -16 3 -18 -6 -18 -74 0 -77 0 -77 -20 -59 -20 18 -21 18 -14 -1
6 -17 4 -16 -22 5 -16 14 -9 4 16 -20 37 -38 44 -51 42 -77 -4 -42 -18 -41
-26 2 -4 19 -14 40 -23 47 -12 10 -15 10 -9 2 9 -16 1 -16 -25 -3 -14 8 -19
21 -19 52 0 48 -8 47 -12 -1 -2 -28 -5 -31 -25 -26 l-24 6 23 -35 c13 -19 33
-40 46 -45 27 -13 28 -29 5 -48 -14 -11 -14 -13 -3 -10 8 2 20 13 26 26 9 18
13 19 23 7 6 -7 10 -20 9 -27 -2 -8 6 -15 18 -17 17 -2 20 -8 16 -28 -4 -21
-9 -25 -28 -21 -20 3 -24 0 -24 -18 0 -12 10 -29 23 -38 22 -15 22 -15 2 -32
-20 -16 -20 -16 3 -12 16 4 22 1 22 -13 0 -10 6 -21 13 -24 6 -3 -1 -4 -17 -3
-23 2 -35 11 -52 42 -13 22 -23 50 -24 63 0 33 -38 99 -45 80 -3 -8 -1 -27 5
-43 16 -43 5 -41 -21 4 -14 26 -25 37 -30 30 -4 -8 -15 3 -27 27 -24 46 -20
123 8 164 9 14 20 33 23 43 4 9 11 17 17 17 5 0 10 11 10 25 0 23 2 24 25 13
14 -6 32 -22 41 -35 8 -14 18 -22 21 -20 7 8 -40 73 -70 97 l-27 21 0 -33 c0
-18 -9 -44 -20 -58 l-20 -25 6 50 c5 47 22 105 30 105 2 0 22 -20 45 -45 36
-39 44 -43 62 -34 11 7 41 9 67 6 30 -4 52 -1 60 6 10 9 11 9 6 0 -10 -19 2
-16 31 7 29 22 43 19 23 -5 -10 -13 -9 -15 9 -15 23 0 29 33 11 60 -9 13 -14
11 -31 -12 -20 -28 -39 -36 -39 -19 0 5 11 19 25 32 13 13 25 28 25 34 0 5
-18 -9 -40 -33 -40 -42 -41 -42 -70 -27 -17 9 -45 15 -64 13 -26 -1 -43 6 -70
30 -20 18 -41 32 -45 32 -5 0 -21 -13 -34 -30z"/>
<path d="M501 558 l-1 -28 1253 2 1252 3 -1244 5 c-1232 5 -1244 5 -1252 25
-7 17 -8 16 -8 -7z"/>
<path d="M619 451 c-23 -18 -24 -23 -19 -111 7 -131 4 -129 218 -125 193 4
174 4 317 1 73 -2 120 2 142 10 26 11 36 11 60 0 21 -10 65 -13 178 -10 83 2
161 3 175 3 26 -2 147 -3 190 -1 14 0 57 0 95 0 39 -1 81 0 95 1 14 1 55 -1
92 -5 57 -5 72 -3 101 15 31 19 35 19 50 4 9 -9 30 -16 47 -15 43 3 47 3 125
-1 45 -2 80 1 98 10 23 11 31 11 55 -1 42 -21 132 -15 166 12 17 13 43 22 62
22 45 0 74 41 74 105 0 38 -5 52 -29 76 -27 26 -36 29 -98 29 -41 0 -79 -6
-97 -15 -27 -14 -33 -14 -64 1 -22 10 -45 14 -66 10 -17 -4 -40 -6 -51 -5 -11
0 -27 1 -35 0 -28 -1 -144 0 -610 4 -407 3 -468 1 -491 -12 -24 -14 -29 -14
-50 1 -30 21 -63 20 -99 -1 -26 -15 -30 -15 -53 0 -19 13 -56 15 -200 15 -162
0 -178 -1 -202 -20 -22 -17 -26 -27 -23 -62 3 -35 0 -41 -17 -41 -16 0 -21 9
-26 44 -9 72 -61 101 -110 62z m71 -91 l0 -71 50 7 c49 6 50 6 50 -20 0 -26
-1 -26 -75 -26 l-75 0 0 71 c0 39 -5 79 -10 90 -10 17 -7 19 25 19 l35 0 0
-70z m290 50 c0 -18 -7 -20 -55 -20 -42 0 -55 -3 -55 -15 0 -12 13 -15 55 -15
48 0 55 -2 55 -20 0 -18 -7 -20 -55 -20 -42 0 -55 -3 -55 -15 0 -12 13 -15 55
-15 48 0 55 -2 55 -20 0 -18 -7 -20 -82 -20 l-83 0 3 71 c3 56 0 74 -14 90
-17 19 -15 19 79 19 90 0 97 -1 97 -20z m210 0 c0 -18 -7 -20 -60 -20 l-60 0
0 -50 0 -50 35 0 c24 0 35 5 35 15 0 9 -9 15 -25 15 -18 0 -25 5 -25 20 0 17
7 20 50 20 l50 0 0 -55 0 -55 -85 0 -85 0 0 74 c0 41 -4 78 -10 81 -28 17 -1
25 85 25 88 0 95 -1 95 -20z m182 -67 l34 -88 -25 -3 c-15 -2 -30 3 -37 12
-15 21 -74 22 -74 1 0 -10 -10 -15 -34 -15 l-34 0 30 72 c16 40 27 81 24 90
-3 15 3 18 39 18 l43 0 34 -87z m208 61 c0 -24 -2 -25 -52 -23 l-53 3 0 -44 0
-45 53 3 c50 4 52 3 52 -23 l0 -26 -77 3 -78 3 -3 75 c-2 41 -8 80 -14 87 -8
10 7 13 81 13 l91 0 0 -26z m90 -64 l0 -90 -30 0 -30 0 0 78 c0 47 -5 83 -12
90 -9 9 -3 12 30 12 l42 0 0 -90z m200 70 c0 -18 -7 -20 -60 -20 -47 0 -60 -3
-60 -15 0 -12 13 -15 55 -15 48 0 55 -2 55 -20 0 -18 -7 -20 -55 -20 -42 0
-55 -3 -55 -15 0 -12 13 -15 60 -15 53 0 60 -2 60 -20 0 -18 -7 -20 -85 -20
l-85 0 0 78 c0 47 -5 83 -12 90 -9 9 10 12 85 12 90 0 97 -1 97 -20z m190 -6
c0 -26 0 -26 -56 -19 -45 5 -55 4 -52 -7 3 -7 26 -18 53 -23 52 -11 71 -38 60
-82 -5 -22 -10 -23 -86 -23 -78 0 -80 1 -77 23 3 20 7 22 56 19 40 -3 52 -1
52 11 0 9 -15 17 -42 21 -52 9 -68 21 -68 55 0 15 -5 32 -12 39 -9 9 8 12 80
12 l92 0 0 -26z m200 0 c0 -26 -1 -27 -55 -20 -43 5 -55 3 -55 -8 0 -9 16 -16
44 -20 54 -8 68 -24 64 -68 l-3 -33 -77 -3 c-77 -3 -78 -3 -78 22 0 24 2 24
56 19 46 -5 56 -3 52 8 -3 8 -27 19 -54 24 -44 10 -49 14 -52 40 -2 17 -8 34
-13 40 -20 20 -5 25 81 25 l90 0 0 -26z m86 -1 c3 -16 9 -39 14 -53 7 -23 8
-22 14 15 11 60 14 65 35 65 17 0 21 -9 27 -50 4 -27 10 -50 14 -50 4 0 10 23
14 50 6 48 8 50 37 50 21 0 30 -4 26 -12 -2 -7 -13 -48 -23 -91 -19 -77 -19
-78 -49 -75 -26 3 -31 8 -36 41 -9 54 -16 54 -23 2 -7 -41 -9 -45 -36 -45 -31
0 -33 5 -56 105 -3 17 -13 40 -20 53 -14 21 -13 22 21 22 30 0 35 -4 41 -27z
m329 -55 c17 -45 32 -86 33 -90 2 -4 -10 -8 -27 -8 -21 0 -31 5 -31 15 0 11
-11 15 -35 15 -22 0 -38 -6 -41 -15 -5 -12 -64 -23 -64 -12 0 1 14 35 30 76
17 41 28 81 26 88 -4 9 6 13 37 13 l42 0 30 -82z m223 15 l3 -63 -61 0 c-57 0
-60 -1 -60 -25 0 -20 -5 -25 -25 -25 -24 0 -25 2 -25 74 0 41 -4 78 -10 81
-29 18 -2 26 83 23 l92 -3 3 -62z"/>
<path d="M1295 351 c-8 -26 -3 -34 19 -29 12 2 13 7 2 27 l-14 24 -7 -22z"/>
<path d="M2602 350 c-7 -19 -6 -26 5 -28 21 -5 25 2 14 29 l-9 24 -10 -25z"/>
<path d="M2780 363 c0 -20 5 -23 35 -23 30 0 35 3 35 23 0 20 -5 23 -35 23
-30 0 -35 -3 -35 -23z"/>
<path d="M446 228 c-9 -12 -16 -29 -16 -38 0 -8 10 0 21 18 24 37 20 55 -5 20z"/>
</g>
</svg>
